<?xml version="1.0" standalone="no"?>
<!DOCTYPE svg PUBLIC "-//W3C//DTD SVG 20010904//EN"
 "http://www.w3.org/TR/2001/REC-SVG-20010904/DTD/svg10.dtd">
<svg version="1.0" xmlns="http://www.w3.org/2000/svg"
 width="472.000000pt" height="472.000000pt" viewBox="0 0 472.000000 472.000000"
 preserveAspectRatio="xMidYMid meet">

<g transform="translate(0.000000,472.000000) scale(0.100000,-0.100000)"
fill="#000000" stroke="none">
<path d="M3682 4285 c-33 -35 -42 -79 -19 -89 8 -4 7 -5 -3 -4 -8 1 -22 -2
-30 -5 -8 -3 -31 -8 -50 -9 -19 -2 -34 -7 -32 -13 1 -5 -17 -13 -40 -17 -24
-4 -65 -12 -93 -18 -27 -6 -67 -14 -88 -17 -21 -3 -41 -11 -44 -19 -3 -8 -17
-14 -32 -14 -42 0 -115 -22 -173 -51 -10 -5 -28 -9 -41 -9 -27 0 -61 -36 -53
-56 5 -12 28 -15 121 -13 64 1 113 4 110 8 -6 5 81 21 200 37 22 3 49 9 60 14
11 5 39 11 62 13 24 2 46 6 50 10 3 4 18 7 33 7 15 0 41 5 58 11 17 6 37 9 44
6 14 -5 13 -6 -59 -27 -24 -7 -49 -23 -57 -34 -50 -76 -72 -87 -206 -103 -25
-3 -47 -9 -50 -13 -21 -31 -326 -63 -510 -53 -187 10 -338 5 -370 -12 -14 -7
-45 -18 -70 -25 -25 -7 -52 -16 -60 -21 -8 -5 -22 -12 -30 -15 -53 -21 -186
-91 -200 -104 -12 -12 -51 -30 -65 -30 -8 0 -15 -4 -15 -10 0 -5 -11 -10 -25
-10 -14 0 -25 -4 -25 -10 0 -5 -4 -10 -9 -10 -5 0 -22 -5 -38 -12 -15 -6 -63
-17 -107 -24 -43 -6 -82 -17 -85 -23 -4 -6 -30 -12 -58 -13 -28 -2 -49 -6 -46
-10 2 -5 -19 -8 -47 -8 -36 0 -52 -4 -56 -15 -9 -22 -112 -21 -128 1 -10 12
-31 16 -100 16 l-88 -1 -46 -46 c-38 -39 -46 -54 -50 -94 -3 -32 0 -52 9 -62
8 -8 25 -38 38 -66 14 -29 28 -53 32 -53 4 0 19 -20 33 -45 26 -44 28 -45 77
-45 66 0 116 32 126 80 4 19 6 38 5 43 -2 6 43 11 86 10 6 -1 12 3 12 8 0 5
20 9 44 9 26 0 48 6 56 15 7 9 29 15 51 15 21 0 48 4 61 9 13 5 63 14 113 21
49 6 95 16 101 21 7 6 63 11 126 12 111 2 114 1 181 -32 37 -19 67 -40 67 -47
0 -18 26 -24 75 -17 l45 6 2 -702 3 -701 -67 0 -68 0 0 -80 0 -80 231 2 230 3
2 76 c1 45 -2 76 -8 76 -5 0 -35 1 -65 1 l-55 2 0 205 c0 113 2 205 4 205 4 0
107 -97 135 -128 11 -13 38 -40 59 -60 21 -21 68 -65 104 -99 36 -35 62 -63
58 -63 -9 0 47 -46 65 -53 8 -3 -13 -6 -47 -6 l-63 -1 0 -80 0 -80 243 2 242
3 0 75 0 75 -53 3 c-52 3 -55 5 -133 83 -43 43 -84 79 -90 79 -5 0 -7 4 -4 10
3 5 1 10 -5 10 -6 0 -20 9 -32 20 -12 11 -19 20 -16 20 7 0 -93 100 -101 100
-5 0 -79 64 -106 91 -5 5 -19 18 -29 27 -22 20 -46 45 -63 65 -9 12 -7 19 13
36 13 11 29 21 34 21 6 0 10 5 10 10 0 6 8 10 18 10 9 0 22 10 27 22 6 13 21
28 33 34 13 7 32 26 43 43 10 17 26 31 34 31 9 0 18 7 21 15 4 8 15 15 25 15
10 0 19 6 19 13 0 14 35 47 50 47 6 0 10 3 10 8 0 15 48 62 64 62 9 0 16 5 16
10 0 6 7 10 15 10 8 0 15 4 15 10 0 5 12 21 27 35 21 19 38 25 73 25 25 0 52
6 59 13 11 9 12 9 7 0 -5 -9 -2 -11 8 -7 12 5 16 22 16 76 0 58 -3 69 -15 65
-8 -4 -17 -2 -20 3 -8 13 -386 13 -419 0 -23 -9 -26 -15 -26 -62 0 -53 10 -82
30 -84 5 -1 24 -2 40 -3 l31 -1 -58 -55 c-32 -30 -64 -55 -70 -55 -7 0 -13 -4
-13 -9 0 -5 -9 -13 -20 -16 -11 -3 -20 -11 -20 -16 0 -9 -36 -49 -45 -49 -3 0
-25 -20 -48 -45 -24 -25 -51 -45 -60 -45 -9 0 -17 -7 -17 -15 0 -8 -3 -15 -8
-15 -4 0 -22 -13 -40 -30 l-33 -29 3 429 c2 280 0 431 -7 433 -5 2 21 10 59
17 68 13 126 49 126 79 0 35 90 131 122 131 10 0 18 5 18 10 0 6 11 10 24 10
13 0 26 7 30 15 3 9 18 15 36 15 16 0 30 5 30 10 0 6 12 10 28 10 15 0 48 7
74 14 25 8 50 11 54 8 4 -4 4 -2 1 4 -4 7 26 17 88 29 52 10 95 21 95 25 0 5
21 11 48 14 26 3 76 9 112 14 65 9 65 9 93 -22 24 -26 35 -31 71 -30 113 2
124 22 128 222 l3 144 -30 24 c-16 13 -43 24 -60 24 -16 0 -39 7 -49 15 -19
14 -18 15 10 15 17 0 35 5 41 11 6 6 30 10 52 7 22 -2 42 0 43 4 2 3 23 8 46
11 24 2 47 9 51 15 4 6 25 13 48 14 23 2 39 6 36 11 -2 4 16 7 42 7 31 0 47 5
51 15 4 8 17 15 31 15 13 0 32 4 42 9 9 5 30 11 46 14 30 4 46 9 100 32 17 7
40 16 53 20 15 4 22 14 22 32 l0 25 -125 -4 c-69 -1 -125 -6 -125 -9 0 -3 -27
-9 -59 -12 -33 -3 -65 -9 -73 -13 -13 -8 -55 -14 -95 -14 -12 0 -25 -5 -28
-10 -3 -6 -30 -10 -60 -10 -30 0 -57 -4 -60 -10 -12 -19 -22 -10 -17 16 7 37
-31 74 -78 74 -29 0 -43 -7 -68 -35z m726 -12 c-14 -2 -32 -11 -38 -19 -7 -8
-23 -14 -36 -14 -12 0 -25 -4 -29 -9 -3 -5 -31 -13 -63 -17 -31 -4 -60 -11
-63 -16 -7 -11 -71 -27 -139 -35 -25 -3 -52 -12 -61 -19 -9 -8 -28 -13 -42
-10 -14 2 -34 -2 -44 -9 -10 -8 -36 -15 -58 -15 -22 0 -58 -5 -80 -12 -22 -6
-44 -11 -49 -9 -6 1 -19 -2 -30 -8 -12 -5 -61 -17 -111 -26 -49 -9 -99 -20
-110 -25 -11 -5 -42 -11 -70 -15 -27 -4 -77 -11 -110 -17 -33 -5 -103 -12
-155 -14 -90 -4 -93 -4 -66 11 15 8 38 15 51 15 12 0 28 7 35 15 7 8 25 15 41
15 15 0 31 5 34 10 3 6 21 10 39 10 19 0 39 7 46 15 7 8 22 14 34 14 11 -1 44
4 71 11 28 7 72 14 98 17 30 3 51 11 54 20 4 10 17 13 42 12 39 -3 91 24 91
47 0 12 57 34 91 34 9 0 19 -9 22 -20 6 -23 48 -28 66 -6 6 7 39 16 74 20 92
9 140 17 157 23 50 20 136 31 240 30 52 0 83 -2 68 -4z m-1778 -985 c1 -7 4
-209 7 -450 3 -383 5 -437 19 -442 9 -3 21 -3 27 1 7 4 16 8 20 8 14 0 57 46
57 60 0 8 9 15 19 17 11 2 60 40 108 85 127 118 214 193 224 193 5 0 9 11 9
24 0 27 -16 36 -63 36 -30 0 -32 2 -30 32 1 18 2 43 2 56 l1 23 193 -2 c105
-1 198 -4 205 -7 15 -5 14 -101 -2 -103 -6 -1 -33 -1 -61 0 -47 0 -52 -2 -80
-39 -16 -21 -39 -41 -51 -44 -11 -3 -58 -40 -104 -83 -46 -43 -84 -77 -86 -77
-1 1 -39 -34 -85 -77 -46 -43 -87 -79 -91 -79 -4 0 -23 -15 -44 -34 -28 -26
-35 -38 -29 -55 3 -11 13 -21 21 -21 8 0 14 -4 14 -9 0 -14 54 -68 122 -123
83 -65 160 -140 189 -183 13 -19 29 -35 34 -35 6 0 47 -36 92 -80 80 -79 82
-80 132 -80 l51 0 0 -45 0 -44 -225 -3 -225 -3 0 47 0 47 57 3 c46 2 59 7 61
21 2 12 -65 84 -210 227 -205 202 -244 231 -263 200 -9 -14 -7 -432 2 -441 5
-5 34 -9 66 -10 l57 -2 0 -50 c0 -41 -3 -48 -16 -43 -9 3 -101 6 -205 6 l-189
0 0 45 0 45 54 0 c36 0 58 5 66 15 10 12 12 157 8 705 -3 380 -2 690 3 690 5
0 6 13 3 29 -6 31 -6 31 81 47 16 3 32 7 34 10 8 8 18 4 21 -8z"/>
<path d="M1815 3773 c-27 -2 -54 -8 -60 -13 -6 -5 -36 -10 -67 -11 -32 -1 -55
-6 -52 -11 3 -4 -7 -8 -23 -8 -15 0 -66 -10 -113 -21 -47 -11 -98 -22 -115
-25 -16 -3 -38 -10 -47 -15 -9 -5 -30 -9 -47 -9 -23 0 -29 4 -25 15 11 27 -34
55 -87 55 -49 0 -79 -18 -79 -46 0 -8 -4 -12 -10 -9 -5 3 -10 -2 -10 -13 0
-10 12 -25 27 -33 l26 -14 -39 -7 c-21 -4 -56 -7 -78 -7 -27 -1 -37 -5 -33
-14 4 -12 -13 -17 -70 -20 -7 0 -13 -4 -13 -9 0 -4 -15 -8 -33 -8 -18 0 -55
-11 -83 -24 -43 -20 -85 -32 -146 -40 -9 -1 -23 -8 -32 -15 -8 -7 -21 -14 -28
-15 -7 -1 -23 -7 -35 -14 -12 -7 -28 -12 -35 -12 -24 -1 -51 -28 -42 -42 5 -7
9 -17 9 -23 0 -14 63 -19 78 -6 7 5 39 11 70 12 32 1 60 6 62 10 3 4 51 12
107 19 57 7 111 17 121 22 30 16 126 38 160 38 18 0 37 4 43 9 5 5 23 11 39
12 17 2 38 10 47 17 10 9 31 13 52 10 20 -2 37 -1 38 3 2 4 19 9 38 11 19 1
38 7 42 12 9 13 86 36 120 36 14 0 39 6 55 14 44 22 76 34 108 41 86 17 82 16
148 45 12 5 29 11 36 12 8 2 33 12 55 23 30 15 42 27 44 46 3 23 0 25 -35 25
-21 1 -60 -1 -88 -3z m60 -43 c-16 -11 -38 -20 -47 -20 -9 0 -20 -4 -23 -10
-3 -5 -16 -10 -28 -10 -12 0 -31 -7 -41 -15 -11 -8 -30 -15 -42 -15 -13 0 -26
-4 -29 -10 -3 -5 -20 -10 -37 -10 -16 0 -42 -7 -56 -15 -28 -15 -99 -33 -164
-42 -21 -3 -42 -11 -49 -19 -6 -8 -26 -14 -45 -14 -18 0 -36 -4 -39 -10 -3 -5
-19 -10 -34 -10 -16 0 -44 -6 -62 -14 -19 -7 -40 -11 -47 -9 -7 3 -19 0 -26
-6 -7 -6 -51 -18 -97 -26 -46 -9 -93 -20 -104 -25 -33 -14 -161 -35 -290 -46
-33 -3 -68 -13 -77 -21 -10 -9 -24 -13 -33 -10 -26 11 -17 26 20 33 19 3 38
10 41 15 3 5 15 9 26 9 12 0 29 6 37 13 9 7 36 19 61 26 25 7 56 18 70 24 28
12 124 35 182 44 21 3 42 11 49 19 6 8 26 14 45 14 18 0 36 5 39 10 3 6 21 10
40 10 29 0 34 4 37 27 2 23 10 29 42 36 28 7 40 6 46 -3 8 -13 61 -10 160 10
30 6 62 12 70 13 9 2 21 7 29 11 7 5 42 11 77 14 36 2 67 9 70 13 3 5 29 9 59
9 35 0 59 5 67 15 9 9 33 14 73 15 l60 0 -30 -20z"/>
<path d="M420 2964 c-8 -3 -37 -14 -63 -25 -26 -11 -53 -17 -59 -13 -7 4 -8 3
-4 -4 4 -7 1 -12 -9 -12 -8 0 -18 -7 -21 -15 -4 -8 -11 -15 -18 -15 -13 -1
-46 -29 -61 -52 -5 -8 -19 -28 -30 -44 -17 -23 -21 -48 -23 -143 -5 -165 0
-187 57 -246 66 -68 69 -70 147 -100 38 -14 77 -30 86 -36 10 -5 31 -9 47 -9
17 0 33 -4 36 -10 3 -5 22 -10 41 -10 19 0 34 -4 34 -10 0 -5 8 -10 18 -10 10
0 35 -9 57 -20 22 -11 44 -20 50 -20 5 0 23 -16 39 -36 21 -27 29 -50 33 -95
4 -38 2 -59 -5 -59 -5 0 -8 -9 -5 -19 3 -13 -2 -23 -16 -31 -12 -6 -19 -15
-16 -20 6 -10 -47 -50 -67 -50 -8 0 -20 -6 -26 -12 -20 -20 -259 -22 -289 -3
-12 8 -30 15 -40 15 -16 0 -18 8 -15 69 5 101 -3 111 -87 111 -54 0 -70 -4
-75 -16 -3 -9 -6 -80 -6 -159 l0 -144 35 -7 c19 -3 33 -9 31 -13 -2 -3 14 -7
37 -8 22 -2 45 -7 51 -13 13 -13 370 -13 394 -1 9 5 44 20 77 32 33 12 67 29
76 38 9 9 25 23 35 32 31 26 79 84 82 99 2 8 11 23 20 33 13 15 17 41 17 135
0 110 -2 119 -27 157 -40 60 -71 95 -86 95 -7 0 -10 4 -7 10 3 5 -12 17 -35
26 -22 9 -57 25 -77 35 -21 11 -45 19 -54 19 -9 0 -30 7 -45 15 -16 8 -39 15
-51 15 -13 0 -23 5 -23 10 0 6 -15 10 -34 10 -19 0 -38 5 -41 10 -3 6 -17 10
-31 10 -24 0 -63 15 -74 29 -3 3 -17 12 -31 20 -36 18 -49 50 -49 118 0 66 26
115 70 135 17 7 30 16 30 19 0 20 235 38 253 20 6 -6 28 -11 49 -11 l37 0 3
-77 3 -78 83 -3 82 -3 0 140 c0 145 -2 152 -45 158 -11 2 -38 11 -60 20 -31
13 -80 17 -215 19 -96 2 -182 1 -190 -2z"/>
<path d="M1550 2915 c-41 -7 -64 -15 -62 -23 1 -7 -9 -12 -23 -12 -14 0 -25
-4 -25 -10 0 -5 -9 -10 -19 -10 -10 0 -21 -7 -25 -15 -3 -8 -12 -15 -20 -15
-20 0 -166 -145 -166 -165 0 -8 -4 -15 -8 -15 -13 0 -52 -79 -52 -106 0 -15
-6 -24 -15 -24 -11 0 -15 -11 -15 -38 0 -21 -5 -43 -11 -49 -7 -7 -9 -47 -5
-114 6 -142 16 -203 32 -212 8 -4 14 -17 14 -27 0 -10 5 -22 10 -25 6 -3 10
-15 10 -26 0 -10 5 -19 10 -19 6 0 10 -6 10 -13 0 -8 25 -40 55 -72 30 -33 55
-63 55 -67 0 -4 10 -13 22 -19 12 -6 31 -20 42 -31 24 -22 73 -48 91 -48 7 0
15 -6 18 -14 5 -14 94 -33 130 -28 10 1 28 -5 40 -13 29 -20 130 -20 147 0 7
9 30 15 54 16 63 0 121 14 119 27 -2 7 6 12 16 12 11 0 23 5 26 10 3 6 13 10
22 10 8 0 24 11 35 25 11 14 25 25 33 25 17 0 105 82 105 98 0 6 4 12 8 12 8
0 39 53 69 115 8 17 18 38 24 47 5 10 9 29 9 43 0 14 5 25 10 25 6 0 10 55 10
145 0 90 -4 145 -10 145 -5 0 -10 18 -10 40 0 22 -4 40 -10 40 -5 0 -12 11
-16 25 -3 14 -11 25 -16 25 -6 0 -7 7 -4 15 3 9 -1 18 -9 21 -8 4 -15 15 -15
25 0 10 -4 19 -10 19 -5 0 -10 7 -10 15 0 8 -4 15 -8 15 -4 0 -38 29 -76 65
-37 36 -74 65 -81 65 -7 0 -15 7 -19 15 -3 8 -12 15 -21 15 -8 0 -15 5 -15 10
0 6 -11 10 -24 10 -13 0 -29 7 -36 15 -7 8 -23 15 -36 15 -13 0 -24 3 -24 8 0
11 -256 8 -330 -3z m313 -54 c16 -6 33 -9 38 -5 5 3 12 -2 15 -10 3 -9 17 -16
30 -16 13 0 24 -3 24 -8 0 -4 14 -13 32 -21 17 -8 39 -21 48 -30 10 -9 35 -32
56 -51 58 -53 124 -155 124 -191 0 -9 7 -19 15 -23 10 -3 15 -19 15 -46 0 -22
5 -40 10 -40 6 0 10 -42 10 -105 0 -63 -4 -105 -10 -105 -5 0 -10 -16 -10 -35
0 -22 -6 -38 -15 -41 -8 -4 -15 -16 -15 -29 0 -27 -47 -115 -66 -122 -8 -3
-14 -11 -14 -18 0 -16 -63 -85 -77 -85 -5 0 -22 -11 -37 -25 -15 -14 -33 -25
-41 -25 -8 0 -17 -4 -20 -10 -3 -5 -15 -10 -26 -10 -10 0 -19 -4 -19 -8 0 -9
-70 -30 -130 -38 -82 -12 -180 -5 -246 16 -58 19 -144 60 -144 69 0 4 -12 14
-27 22 -16 8 -44 32 -63 53 -19 21 -45 50 -57 63 -13 13 -23 33 -23 43 0 11
-4 20 -10 20 -5 0 -10 9 -10 20 0 11 -7 23 -15 26 -8 4 -15 17 -15 29 0 13 -4
27 -10 30 -5 3 -10 24 -10 45 0 21 -5 40 -10 42 -17 5 -19 114 -4 144 8 15 14
42 14 60 0 19 5 34 10 34 6 0 10 14 10 30 0 17 4 30 8 30 5 0 16 18 26 41 19
43 99 148 124 163 8 4 22 16 31 25 9 9 30 22 46 30 17 7 38 17 47 22 10 5 25
9 33 9 8 0 15 4 15 9 0 5 16 12 35 15 19 4 35 10 35 14 0 12 243 6 273 -7z
m-78 -1131 c-3 -5 -12 -10 -18 -10 -7 0 -6 4 3 10 19 12 23 12 15 0z"/>
<path d="M1580 2793 c-8 -3 -17 -9 -20 -13 -3 -3 -31 -16 -62 -29 -63 -25
-139 -92 -183 -161 -15 -25 -36 -56 -45 -70 -25 -37 -33 -83 -33 -200 -1 -113
8 -179 27 -195 7 -5 18 -26 26 -45 13 -34 163 -190 182 -190 5 0 35 -12 66
-27 53 -26 66 -28 182 -28 122 0 127 1 192 33 36 19 75 42 87 53 11 10 23 19
26 19 21 0 121 134 140 186 10 27 22 53 27 59 12 13 10 265 -2 265 -5 0 -10 6
-10 14 0 65 -132 236 -210 272 -144 68 -130 64 -256 63 -65 0 -126 -3 -134 -6z
m239 -300 c66 -36 101 -100 101 -181 0 -47 -5 -67 -26 -98 -15 -21 -32 -42
-40 -47 -7 -4 -20 -15 -29 -24 -21 -20 -99 -35 -145 -27 -19 3 -56 19 -81 35
-96 61 -116 197 -44 294 56 76 176 98 264 48z"/>
<path d="M1692 2488 c-15 -15 -16 -48 -2 -48 15 0 12 -63 -4 -86 -12 -16 -25
-19 -80 -16 l-66 2 0 -42 c1 -52 36 -96 107 -133 58 -31 78 -31 137 0 79 42
95 68 96 154 l0 74 -44 43 c-24 25 -53 44 -65 44 -11 0 -21 5 -21 10 0 14 -43
13 -58 -2z m73 -34 c33 -6 82 -70 89 -118 11 -70 -17 -114 -100 -157 -38 -19
-40 -19 -74 -2 -19 10 -37 21 -40 24 -3 3 -12 8 -21 11 -19 7 -49 62 -49 90 0
19 25 25 35 8 13 -21 55 -9 90 25 28 28 35 44 35 73 0 21 -6 44 -12 51 -11 12
-9 13 7 7 11 -4 29 -9 40 -12z"/>
<path d="M3825 2916 c-33 -5 -64 -15 -68 -23 -4 -7 -15 -13 -23 -13 -19 0 -51
-18 -98 -57 -21 -18 -43 -30 -47 -27 -5 3 -9 1 -9 -4 0 -5 -25 -34 -55 -65
-30 -30 -55 -60 -55 -66 0 -5 -11 -27 -25 -47 -14 -20 -25 -45 -25 -54 0 -10
-7 -23 -16 -31 -8 -7 -13 -21 -11 -31 3 -10 1 -21 -4 -24 -9 -5 -11 -73 -8
-264 0 -25 4 -46 9 -48 5 -2 7 -9 4 -17 -3 -7 4 -30 15 -50 11 -21 18 -42 15
-47 -3 -4 -1 -8 5 -8 6 0 13 -11 17 -25 3 -14 10 -25 15 -25 5 0 9 -5 9 -11 0
-6 7 -17 15 -26 8 -8 13 -19 10 -24 -4 -5 -1 -9 6 -9 7 0 32 -20 56 -45 23
-25 47 -45 54 -45 6 0 22 -11 35 -25 13 -14 30 -25 39 -25 8 0 15 -4 15 -10 0
-5 9 -10 20 -10 11 0 23 -7 26 -15 4 -8 16 -15 28 -15 13 0 26 -3 30 -7 4 -4
24 -6 44 -4 21 1 51 -5 67 -13 38 -20 114 -21 141 -2 13 9 40 14 72 13 29 -2
52 1 52 5 0 4 11 8 25 8 13 0 28 6 32 13 4 6 21 19 37 27 17 8 41 25 54 38 14
12 29 22 33 22 11 0 129 115 129 126 0 4 11 22 25 40 14 18 25 39 25 47 0 8 7
18 16 21 11 4 15 14 11 32 -3 16 1 28 9 31 11 4 14 43 14 194 0 119 -4 189
-10 189 -5 0 -10 11 -10 24 0 13 -7 29 -15 36 -8 7 -15 21 -15 31 0 11 -4 19
-10 19 -5 0 -10 6 -10 14 0 8 -7 16 -15 20 -8 3 -15 15 -15 26 0 12 -5 18 -10
15 -6 -3 -13 2 -17 12 -7 22 -78 93 -92 93 -6 0 -24 14 -41 30 -17 17 -40 30
-50 30 -11 0 -20 5 -20 10 0 6 -9 10 -19 10 -10 0 -21 6 -24 14 -10 26 -271
40 -392 22z m306 -56 c11 -6 27 -9 35 -6 8 3 17 -1 20 -9 4 -8 14 -15 24 -15
11 0 22 -4 25 -10 3 -5 15 -10 26 -10 10 0 19 -3 19 -7 0 -5 17 -19 37 -33 49
-34 133 -119 133 -136 0 -8 5 -14 10 -14 6 0 10 -9 10 -20 0 -11 5 -20 10 -20
6 0 10 -11 10 -25 0 -14 4 -25 8 -25 15 0 42 -76 42 -117 0 -22 3 -43 7 -46 3
-4 6 -25 6 -47 0 -22 -3 -43 -6 -47 -4 -3 -7 -26 -7 -50 0 -24 -4 -51 -8 -61
-5 -9 -16 -32 -25 -50 -9 -19 -17 -40 -17 -48 0 -8 -3 -14 -8 -14 -4 0 -14
-14 -21 -32 -15 -33 -134 -158 -150 -158 -6 0 -22 -11 -37 -25 -15 -14 -34
-25 -43 -25 -10 0 -21 -4 -27 -8 -28 -24 -134 -45 -219 -44 -77 1 -215 29
-215 43 0 5 -6 9 -13 9 -19 0 -77 30 -77 39 0 4 -12 14 -27 22 -41 20 -113 91
-113 110 0 9 -7 19 -15 23 -8 3 -15 12 -15 21 0 8 -4 15 -10 15 -5 0 -10 7
-10 15 0 8 -4 15 -10 15 -5 0 -10 11 -10 25 0 14 -4 25 -10 25 -5 0 -10 12
-10 26 0 14 -5 35 -12 47 -15 28 -14 240 1 245 6 2 11 19 11 38 0 19 5 34 10
34 6 0 10 14 10 30 0 17 4 30 9 30 5 0 16 15 24 33 9 17 28 46 43 62 14 17 33
39 43 51 9 11 30 29 46 39 17 11 32 22 35 26 11 14 82 49 100 49 11 0 20 4 20
9 0 32 288 49 341 21z m437 -391 c-3 -8 -7 -3 -11 10 -4 17 -3 21 5 13 5 -5 8
-16 6 -23z m-1 -56 c-3 -10 -5 -4 -5 12 0 17 2 24 5 18 2 -7 2 -21 0 -30z m0
-240 c-2 -16 -4 -5 -4 22 0 28 2 40 4 28 2 -13 2 -35 0 -50z"/>
<path d="M3848 2793 c-10 -2 -18 -9 -18 -14 0 -5 -7 -9 -15 -9 -16 0 -96 -38
-105 -49 -3 -4 -18 -16 -33 -28 -15 -12 -47 -46 -70 -75 -23 -29 -45 -54 -49
-56 -5 -2 -8 -12 -8 -23 0 -10 -4 -19 -10 -19 -5 0 -10 -11 -10 -24 0 -13 -5
-26 -11 -28 -15 -5 -15 -291 0 -296 6 -2 11 -11 11 -19 0 -20 51 -113 62 -113
4 0 8 -6 8 -13 0 -20 127 -137 148 -137 6 0 33 -12 59 -27 45 -26 55 -27 178
-28 126 0 132 1 190 31 96 48 137 80 188 143 26 32 47 61 47 65 0 4 11 24 25
46 14 22 25 52 25 68 0 15 5 33 11 39 21 21 -3 261 -27 270 -8 3 -14 11 -14
18 0 27 -37 83 -89 135 -71 69 -96 87 -179 122 -61 26 -76 28 -182 27 -63 -1
-123 -3 -132 -6z m245 -304 c56 -37 87 -77 87 -113 0 -14 5 -26 10 -26 6 0 10
-13 10 -29 0 -17 -4 -33 -10 -36 -5 -3 -10 -19 -10 -36 0 -16 -4 -29 -8 -29
-5 0 -14 -10 -21 -23 -7 -12 -32 -35 -58 -51 -36 -24 -56 -29 -102 -29 -70 1
-78 3 -121 32 -57 38 -90 101 -90 171 0 73 23 115 88 164 42 32 53 35 113 36
57 0 72 -4 112 -31z"/>
<path d="M3967 2493 c-11 -10 -8 -68 3 -79 14 -14 -10 -62 -35 -71 -11 -4 -44
-6 -73 -4 -60 3 -75 -13 -48 -54 9 -13 16 -31 16 -38 0 -22 41 -62 88 -85 53
-27 57 -27 127 0 102 39 143 143 93 238 -22 41 -71 80 -102 80 -9 0 -16 5 -16
10 0 11 -43 14 -53 3z m67 -37 c21 -3 66 -38 60 -47 -3 -5 -1 -9 5 -9 13 0 41
-58 41 -85 0 -13 -7 -28 -15 -35 -8 -7 -13 -16 -10 -20 7 -11 -24 -50 -40 -50
-7 0 -15 -5 -17 -11 -2 -5 -10 -11 -18 -13 -8 -1 -25 -7 -37 -14 -18 -10 -29
-9 -62 8 -53 28 -91 65 -91 89 0 11 -5 23 -11 27 -21 13 7 27 31 14 71 -38
160 66 119 142 -10 18 -8 19 11 13 13 -4 28 -8 34 -9z"/>
<path d="M135 1528 c-3 -7 -4 -193 -3 -413 l3 -400 2225 0 2225 0 0 410 0 410
-2223 3 c-1774 2 -2224 0 -2227 -10z m558 -159 c14 -6 30 -21 36 -33 17 -33
42 -75 89 -148 23 -37 42 -69 42 -71 0 -2 34 -60 75 -128 41 -68 75 -127 75
-131 0 -4 -22 -8 -50 -8 -46 0 -51 2 -66 33 -21 39 -55 89 -69 99 -5 4 -74 8
-153 8 -138 0 -144 -1 -165 -24 -13 -13 -29 -37 -37 -53 -26 -51 -41 -63 -81
-63 -21 0 -40 3 -42 8 -3 4 20 48 51 97 30 50 66 110 80 135 14 25 38 64 53
87 16 23 29 44 29 47 0 14 96 156 106 156 2 0 14 -5 27 -11z m2739 -1 c14 -12
108 -153 108 -163 0 -2 20 -35 43 -72 24 -37 55 -88 68 -113 13 -24 39 -67 57
-94 43 -67 42 -76 -11 -76 -46 0 -61 10 -87 63 -8 16 -24 40 -37 53 -21 23
-27 24 -165 24 -79 0 -148 -4 -153 -8 -6 -4 -25 -29 -43 -57 -17 -27 -36 -56
-42 -62 -13 -16 -90 -17 -90 -2 0 6 32 63 70 126 39 64 70 117 70 119 0 2 24
41 53 87 28 45 59 95 67 110 17 34 55 77 68 77 4 0 15 -6 24 -12z m-1768 -4
c10 -4 16 -18 16 -40 l0 -34 -184 0 c-158 0 -185 -2 -190 -16 -10 -27 -7 -99
6 -112 8 -8 63 -12 180 -12 l168 0 0 -35 0 -35 -175 0 c-175 0 -175 0 -180
-23 -4 -13 -5 -43 -3 -68 l3 -44 188 -3 187 -2 0 -34 c0 -18 -6 -39 -14 -45
-9 -8 -78 -11 -227 -9 l-214 3 -3 245 c-1 134 0 250 3 257 3 10 54 13 214 13
115 0 216 -3 225 -6z m735 -19 c97 -57 108 -225 20 -305 l-39 -35 70 -70 c38
-38 70 -73 70 -77 0 -5 -24 -8 -54 -8 l-54 0 -68 75 -69 75 -97 0 -98 0 0 34
0 34 124 4 c108 3 128 6 153 24 24 18 28 29 31 79 5 98 -36 118 -243 113
l-130 -3 -5 -215 -5 -215 -40 0 -40 0 -3 245 c-1 134 0 251 3 258 4 11 47 13
223 10 196 -3 220 -5 251 -23z m436 -235 l0 -255 -40 0 -40 0 -3 245 c-1 134
0 251 3 258 3 9 18 12 42 10 l38 -3 0 -255z m1215 45 l5 -210 173 -3 173 -2
-3 -43 -3 -42 -212 -3 c-167 -2 -213 0 -213 10 0 7 -1 122 -3 256 -1 154 2
244 8 246 6 3 24 4 40 3 l30 -2 5 -210z"/>
<path d="M636 1193 c-15 -27 -36 -63 -47 -82 -32 -54 -23 -61 86 -61 71 0 97
3 101 13 6 16 -86 176 -102 177 -6 0 -23 -21 -38 -47z"/>
<path d="M3375 1200 c-10 -22 -21 -40 -25 -40 -10 0 -51 -91 -45 -101 4 -5 49
-9 101 -9 111 0 121 9 80 70 -14 22 -26 43 -26 46 0 11 -50 74 -59 74 -4 0
-16 -18 -26 -40z"/>
</g>
</svg>
